<?xml version="1.0"?>
<svg xmlns="http://www.w3.org/2000/svg" xmlns:xlink="http://www.w3.org/1999/xlink" xmlns:svgjs="http://svgjs.com/svgjs" version="1.1" width="512" height="512" x="0" y="0" viewBox="0 0 512 512" style="enable-background:new 0 0 512 512" xml:space="preserve" class=""><g><circle xmlns="http://www.w3.org/2000/svg" cx="256" cy="256" fill="#7c7c7c" r="232" data-original="#ffd754" style="" class=""/><circle xmlns="http://www.w3.org/2000/svg" cx="256" cy="256" fill="#cdcdcd" r="184" data-original="#edb90c" style="" class=""/><path xmlns="http://www.w3.org/2000/svg" d="m216 280a8 8 0 0 0 0 16h8v56a8 8 0 0 0 16 0v-56h56a8 8 0 0 0 0-16h-56v-16h48a48 48 0 0 0 0-96h-56a8 8 0 0 0 -8 8v72h-8a8 8 0 0 0 0 16h8v16zm104-64a32.036 32.036 0 0 1 -32 32h-48v-64h48a32.036 32.036 0 0 1 32 32z" fill="#ffffff" data-original="#fbe36a" style="" class=""/><g xmlns="http://www.w3.org/2000/svg" fill="#fbefb2"><path d="m74.782 232a8 8 0 0 1 -7.889-9.383 192.259 192.259 0 0 1 155.725-155.724 8 8 0 1 1 2.764 15.76 176.212 176.212 0 0 0 -142.729 142.729 8 8 0 0 1 -7.871 6.618z" fill="#ffffff" data-original="#fbefb2" style="" class=""/><path d="m287.99 445.229a8 8 0 0 1 -1.372-15.882 176.214 176.214 0 0 0 142.73-142.729 8 8 0 1 1 15.759 2.764 192.259 192.259 0 0 1 -155.725 155.725 8.051 8.051 0 0 1 -1.392.122z" fill="#ffffff" data-original="#fbefb2" style="" class=""/><circle cx="72" cy="256" r="8" fill="#ffffff" data-original="#fbefb2" style="" class=""/><circle cx="256" cy="72" r="8" fill="#ffffff" data-original="#fbefb2" style="" class=""/><circle cx="440" cy="256" r="8" fill="#ffffff" data-original="#fbefb2" style="" class=""/><circle cx="256" cy="440" r="8" fill="#ffffff" data-original="#fbefb2" style="" class=""/></g></g></svg>
