<svg xmlns="http://www.w3.org/2000/svg" width="472" height="160" viewBox="0 0 472 160">
  <g>
    <path d="M84.52,73.48a25.1,25.1,0,0,0-7.4,8.8V71.88c0-1.3-3.1,1.3-3.2,1.4a7.28,7.28,0,0,1-.7.6c-.4.3-.6.5-1,.8a23.26,23.26,0,0,1-2.6,1.7,47.82,47.82,0,0,1-6.1,2.8c-1.1.4-2.1.7-3.2,1.1a49,49,0,0,0,2.4-5.2c3.3-9.3,1.9-20.2-2.2-29.1-7.8-17-27.6-27.1-46-23.8a39.51,39.51,0,0,0-5.9,1.6,7.86,7.86,0,0,0-3.5,3c-.3.4-1.3,2.4.1,1.8,16.1-6.2,35.7,1.1,45.9,14.5a41.36,41.36,0,0,1,8.2,28,28.23,28.23,0,0,1-2.8,10.2c-2.3.6-4.7,1-7.1,1.4-9.1,1.5-18.3,1.9-27.4,3V32.88c0-1.2-2.3.6-2.5.8-.9.7-2.4,2.1-2.4,3.4v49.3c-5.5.8-11.1,2.3-14.8,6.8a8.08,8.08,0,0,0-2.1,7.4,8.26,8.26,0,0,0,4.3,5.2c5.5,3,12.6,2.2,18.5,1a58.85,58.85,0,0,0,22.6-10.3,56,56,0,0,0,11.5-11.3,48.21,48.21,0,0,0,12.8-6c.8-.5,1.5-1.1,2.2-1.6V108c0,1.2,2.3-.6,2.5-.8.9-.7,2.4-2.1,2.4-3.4A68.11,68.11,0,0,1,78.82,87a32.41,32.41,0,0,1,1.9-5.5,21.16,21.16,0,0,1,1.1-2.1,4.35,4.35,0,0,0,.4-.7,2.09,2.09,0,0,1,.4-.6c.1-.1.1-.2.2-.3l.2-.2c.2-.1.4-.4.2-.2h0a.76.76,0,0,1,.4-.2c-.5.3.9-.4.6-.3a5.27,5.27,0,0,1,1.2-.3,4.89,4.89,0,0,1,3.7,1.1c1.1,1,5.8-3.7,4.7-4.7C91.22,70,87.12,71.58,84.52,73.48ZM5.22,92.68h0v0Zm-.8.9h0C4.32,93.68,4.32,93.78,4.42,93.58Zm45.4-3.4a4.51,4.51,0,0,0-.7.7c-.4.3-.7.6-1.1.9-.7.5-1.3,1-2.1,1.6a49.43,49.43,0,0,1-4.9,3,53.83,53.83,0,0,1-10.5,4.3c-5.9,1.8-12.8,2.9-18.8,1.1-3.9-1.2-7.3-4.5-6.6-8.5a16.93,16.93,0,0,1,2.7-1,48.92,48.92,0,0,1,9.3-1.6V96c0,1.2,2.3-.6,2.5-.8.9-.7,2.4-2.1,2.4-3.4v-1.6c10.4-1,21.4-1.5,31.6-4.1A35.51,35.51,0,0,1,49.82,90.18Zm33.5-13.1c-.2.1-.1.1,0,0Z" fill="#222"/>
    <path d="M470.22,93.58c-1-.4-2.9,1.8-3.4,2.4l-1.3,1.3a12.88,12.88,0,0,1-1.7,1.6c-.2.2-.4.3-.6.5h0l-.1.1a10.59,10.59,0,0,1-1.2,1,10.4,10.4,0,0,1-3.2,2.1,1.41,1.41,0,0,1-2-.9c-1.1-2.9-.9-6.7-1-9.7-.1-4.3-.1-8.5,0-12.8,0-2.5.1-5.1.2-7.6,0-1.2-2.3.6-2.5.8-.4.4-.9.8-1.3,1.2a9,9,0,0,0-6-1.7,14.82,14.82,0,0,0-5.4,1.7c-5.3,2-11.6,4.1-17.3,2.9.2-.9.4-1.7.6-2.6.3-1.9-1.1-2.1-2.8-1.6a13.38,13.38,0,0,0-4.5,2.9c-.9.9-2.6,2.7-1.8,4.1a4.82,4.82,0,0,0,2.2,1.5,4.88,4.88,0,0,0,1.1.4c-.3,1.2-.7,2.4-1.1,3.7-1.4,4.5-2.9,9-4.4,13.4-2.5-7.2-5-14.5-7.5-21.7-.4-1.3-.9-2.6-1.3-3.8-.5-1.4-5.5,2.7-5,4.2,1.3,3.7,2.6,7.4,3.8,11.2h0a74.16,74.16,0,0,1-9.7,11.4c-1.6,1.5-3.4,3-6,2.9a7.4,7.4,0,0,1-5.9-3.2,13.5,13.5,0,0,1-1.5-2.6c.6-.5,1.2-1.1,1.7-1.6,4.7-4.6,11.2-12,8.8-19.2a6.32,6.32,0,0,0-4.7-4.5c-3.4-.5-6.6,2.8-8.4,5.2-2.8,3.8-3.6,8.5-3.8,13a27.22,27.22,0,0,0,.7,9c-2.6,1.8-9.4,6.5-10.6,2.8a45.05,45.05,0,0,1-1.2-8.2c-.3-3.6-.5-7.2-.7-10.8-.2-2.7-.3-5.4-.6-8.1-.1-1-.2-2.2-1.5-2.3-1.5-.1-3.1,1-4.3,1.7a25.27,25.27,0,0,0-5.8,5.5,35.51,35.51,0,0,0-5.1,8.6c0-2.6-.1-5.2-.1-7.8v-5.3a118.21,118.21,0,0,0,6.5-20.7,115.72,115.72,0,0,0,3-26.2,47.38,47.38,0,0,0-.9-9.9,16,16,0,0,0-2.3-6.3c-2.8-3.8-7.1,2.4-8,5.1-1.6,4.4-1.8,9.4-2.2,14-1.2,15.1-1.1,30.4-1,45.5v2a68.75,68.75,0,0,1-11.5,18.7,5.45,5.45,0,0,0,.1-2.2c-.4-3.1-3.4-5.4-5.6-7.2s-5.6-4.1-6.1-7.1a5,5,0,0,1,.3-2.7,2.85,2.85,0,0,1,.4-.8.1.1,0,0,1,.1-.1,7,7,0,0,1,4.9.3c1.7.8,5.5-4.4,4.8-4.7-4.1-1.9-8.1-.2-11.2,2.8a18.56,18.56,0,0,0-2.4,3,129.93,129.93,0,0,0-15.7,19c0-5.5,0-11.1-.1-16.6a63.17,63.17,0,0,0-.1-8.7v-.4c0-1.2-2.3.6-2.5.8-.9.7-2.4,2.1-2.4,3.4,0,7.2-.5,15-3.4,21.7-.3.7-1,1.9-1.2,2.3-.1.2-1,1.4-.6.9l-.3.3-.1.1h0c-.1.1-.1.1-.2.1a.77.77,0,0,0-.3.1,5.19,5.19,0,0,1-.5.3,4.51,4.51,0,0,1-1.1.3c-8,1.7-7.1-11.4-7.1-16.2,0-4.4.3-8.8.7-13.2.1-1.2-2.4.6-2.5.8-1,.8-2.3,2.1-2.4,3.4-.4,4.4-.6,8.8-.7,13.2v3.6a10,10,0,0,0-1.9,1.6l-.6.6c-.6.6-1.1,1.2-1.7,1.7a40.21,40.21,0,0,1-3.8,3.4c-.9.7-2.4,2.1-3.7,1.7-.8-.2-.8-.7-.9-1.1a88.13,88.13,0,0,1-1.2-13.6c-.2-3-.3-6-.4-9,.8-2.5,1.6-5,2.2-7.6,2.1-8,4-16.2,5.4-24.4,1.2-7.3,2.2-14.9,1.7-22.3-.2-4.3-.9-10.8-4.5-13.7-2.2-1.8-4.9,1.5-6.1,3.1a14.59,14.59,0,0,0-2.3,6.1c-.6,3.2-.9,6.5-1.2,9.8a378.16,378.16,0,0,0-.6,42.6,13.84,13.84,0,0,0-11.2,1.6c-6,3.7-9.1,9.8-9.9,16.6a45,45,0,0,0-.3,5.4c-.3.4-.7.7-1,1.1a12.88,12.88,0,0,1-1.7,1.6c-.2.2-.4.3-.6.5h0l-.1.1a10.59,10.59,0,0,1-1.2,1,10.4,10.4,0,0,1-3.2,2.1,1.41,1.41,0,0,1-2-.9c-1.1-2.9-.9-6.7-1-9.7-.1-4.3-.1-8.5,0-12.8,0-2.5.1-5.1.2-7.6,0-1.2-2.3.6-2.5.8-.4.4-.9.8-1.3,1.2a9,9,0,0,0-6-1.7c-4.9.4-9.5,3.9-12.4,7.6a24.77,24.77,0,0,0-5.1,15.6c-3,2.7-5.9,5.3-9.6,7.1-1.4.6-2.7,1.1-3.5-.5a24.68,24.68,0,0,1-1-2.9,100.08,100.08,0,0,1-3.5-17.3c9.8-6.8,17.6-16.5,23.4-26.7,7.3-12.9,14.6-30.9,6.8-45.3a17.31,17.31,0,0,0-10.4-8.7c-4.6-1.3-9.3.2-13.1,2.9-14.8,10.6-13.6,30.9-13.6,47a265.31,265.31,0,0,0,1.5,30.9,43.62,43.62,0,0,1-6,2.3,26.55,26.55,0,0,0-1.8-7.5c-2.5-5.9-10.3-4-14.6-1.5-3.3,1.9-6.6,4.7-8.3,8.1-.9,1.8-1.2,3.9.6,5.2,2.3,1.6,5.8,2,8.6,2.1a37.24,37.24,0,0,0,10.5-1.2c.1.6.1,1.2.2,1.9.5,6.1.6,12.3.5,18.4-.1,6.8-.3,13.7-.6,20.5a94.32,94.32,0,0,0-9.9-14.4,109.94,109.94,0,0,0-15.5-15c-9.7-8-20.3-15.1-27.4-25.7-7.9-11.7-11.8-27.7-8.3-41.5,2.9-11.5,10-20.2,21.3-23.8a33.21,33.21,0,0,1,19-.2c7.3,2.2,13.4,7,18.1,12.8.8,1,5.8-3.5,4.7-4.8-8.4-10.4-21.1-16.3-34.6-13.7-13,2.5-24.5,12.5-30.2,24.3-6.8,13.8-5.4,30,.8,43.8,5.6,12.5,16,21,26.5,29.3a156.8,156.8,0,0,1,18.2,16.3,96.8,96.8,0,0,1,16.6,25.4c.3.7,2.6-1.2,2.8-1.4.8-.8,2-1.9,2.1-3.1.7-8.9,1.1-17.8,1.3-26.6.2-6.9.2-13.8-.1-20.7-.1-1.1-.1-2.3-.2-3.5,2.1-.8,4.1-1.8,6.1-2.8.6,4.6,1.4,9.2,2.4,13.6.6,2.7,1.1,6.2,2.6,8.5,1.3,2,4.3.5,5.9-.3a49.09,49.09,0,0,0,8.5-5.8c1.2-.9,2.3-1.9,3.4-2.9a25.34,25.34,0,0,0,.4,2.9c.4,2.1,1,5.1,3,6.2a5.59,5.59,0,0,0,3.4.5c4.8-.6,8.8-5,11.4-8.7a44.28,44.28,0,0,0,3.9-7.1c0,1.8.1,3.6.1,5.4.1,2,.2,4,.4,5.9a10.07,10.07,0,0,0,.9,3.8c1.7,3.3,7.3-1.4,8.9-2.7a54.71,54.71,0,0,0,5.6-5.1,15.19,15.19,0,0,0,2.2,6.8c1.9,2.8,5.4,1.2,7.7-.3,4.4-3,7.8-7.5,10.4-12.1.5-.9,1-1.9,1.5-2.9a131.81,131.81,0,0,0,1.1,14.1c.3,2,.9,3.6,3.3,3a18.35,18.35,0,0,0,6.2-3.6,69.1,69.1,0,0,0,5.7-5.1c.9-.9,1.8-1.8,2.6-2.7.1,1.1.2,2.3.3,3.4a10.93,10.93,0,0,0,1.8,5.6c1.6,2,4.5,2.3,6.8,1.6,4.7-1.3,8.4-5.7,10.7-9.8.1-.1.1-.3.2-.4V105a91.9,91.9,0,0,0-9.6,26.4c-1.2,6.6-1.9,13.6-.4,20.2a18.09,18.09,0,0,0,2.5,6.3c.6.9,1.4,2,2.5,1.9,2.3-.1,4.5-3,5.5-4.8a15.67,15.67,0,0,0,1.5-4.3,87.23,87.23,0,0,0,1.8-14.4c.9-11.6,1.1-23.2,1.1-34.8a100.44,100.44,0,0,1,12.3-17.3c.5-.6,1.1-1.2,1.6-1.8a5.57,5.57,0,0,0,.6,3.3c1.4,2.9,4.5,4.9,6.9,7,2.2,1.9,4.9,4.3,3.9,7.5-.1.4-.3.7-.4,1.1-.1.1-.3.2-.4.3a5.91,5.91,0,0,1-1.4.6,8.67,8.67,0,0,1-6.5-.8c-1.6-.9-5.6,4.3-4.7,4.7,3.7,2.1,8,1.5,11.5-.8a19.13,19.13,0,0,0,3.2-2.7,69.35,69.35,0,0,0,15.4-18.7c0,3.9.1,7.9.2,11.8.1,3.5,0,7.1.3,10.7v.5c0,1.2,2.3-.6,2.5-.8,1-.8,2.3-2.1,2.4-3.4a58.45,58.45,0,0,1,3.1-15.5,30.06,30.06,0,0,1,2.2-5.2,18.58,18.58,0,0,1,1.1-1.9,5.58,5.58,0,0,0,.5-.8c.1-.1.5-.7.5-.7.2-.2.3-.4.5-.6l.3-.3.5-.5c.4-.4-.4.5.1-.1l.1-.1h0a2.18,2.18,0,0,0,.5-.4c-.6.4.5-.3.4-.2.5-.2,1.1-.4,1.4.2a14.46,14.46,0,0,1,.4,2.9c.1,1.6.2,3.1.3,4.7.2,3.8.4,7.5.7,11.3a46.31,46.31,0,0,0,1.2,9.1c.6,2.2,1.9,2.5,4,2,3.2-.7,6.2-2.6,8.9-4.3,1.1-.7,2.2-1.5,3.3-2.3.2.4.4.9.6,1.3a9.16,9.16,0,0,0,6.1,5.1c2.9.6,5.7-.5,8.1-2.1,5.6-3.7,10.1-9.1,14.2-14.5L408,103c.4,1.3.9,2.6,1.3,3.8.6,1.8,4.6-3,4.9-3.8,2.6-7.3,5.2-14.6,7.5-22.1h2.1a39.25,39.25,0,0,0,9.5-2c-4.5,5.7-5.8,13.8-4.5,20.9.4,2.1,1,5.1,3,6.2a5.59,5.59,0,0,0,3.4.5c4.8-.6,8.8-5,11.4-8.7a44.28,44.28,0,0,0,3.9-7.1c0,1.8.1,3.6.1,5.4.1,2,.2,4,.4,5.9a10.07,10.07,0,0,0,.9,3.8c1.7,3.3,7.3-1.4,8.9-2.7a62.79,62.79,0,0,0,8.3-8C469.92,95.68,471.32,94,470.22,93.58Zm-322-8.8a9.35,9.35,0,0,1-2.9-1.2,3.18,3.18,0,0,1-1.1-1.2,1.73,1.73,0,0,1-.1-1c.1-.5.3-.9.4-.9l.2-.2a9.23,9.23,0,0,1,1.3-.9,12.61,12.61,0,0,1,4.2-1.6c2.5-.5,5.5,0,7.1,2.2a10.51,10.51,0,0,1,1.5,4.3c.1.4.1.7.2,1.1A30,30,0,0,1,148.22,84.78Zm26-51.3c.3-7.5.6-15.5,4.3-22.2.3-.5.6-1,.8-1.3l.6-.9h0c.1-.1.2-.3.3-.4a5.69,5.69,0,0,1,1.2-1.1,13.24,13.24,0,0,1,2-1.2,17.31,17.31,0,0,1,2.7-.8,13.81,13.81,0,0,1,11,3.4c9.4,8.1,8.2,22.8,4.7,33.4a81.75,81.75,0,0,1-13.4,24.8A52.79,52.79,0,0,1,175.72,79c-.5-4.8-.9-9.7-1.2-14.4C173.92,54.18,173.92,43.88,174.22,33.48Zm33,67.8c-.1.2-.2.2,0,0Zm2.3-3.3c-.6,1-.8,1.4-1.5,2.4,0,.1-.2.3-.3.4a1.38,1.38,0,0,0-.3.4.35.35,0,0,0-.1.2l-.4.4h0c.6-.6,0-.1-.1,0s-.2.1-.3.2l-.6.3c-.3.1-.5.2-.8.3a5.67,5.67,0,0,1-2.6,0,4.54,4.54,0,0,1-2.6-2.8c-2.1-5.1-1.6-11.8.2-16.9a14.72,14.72,0,0,1,1-2.2c.1-.2.3-.4.4-.6s.5-.7.2-.3l.2-.2a1.38,1.38,0,0,1,.4-.3,9.91,9.91,0,0,1,1.7-1.1,12.24,12.24,0,0,1,2.7-.9,8.34,8.34,0,0,1,8.5,4.4C213.82,87.18,212.22,92.88,209.52,98Zm53.2-65.5a118.94,118.94,0,0,1-2.1,20.6c-.8,4.4-1.7,8.8-2.8,13.2-.2-9.5-.2-19.1.1-28.6a148.6,148.6,0,0,1,1.5-20.1v-.2c.1.2.3.4.4.6C262.52,22.08,262.72,27.68,262.72,32.48Zm-2.1-19.3c.1-.2-.1.4,0,0Zm0,0h0C260.62,12.88,261.12,12.48,260.62,13.18Zm-2.8,2.3h0C257.62,15.68,257.62,15.48,257.82,15.48ZM248.12,95a44.26,44.26,0,0,1-3.5,5.3l-.4.4-.3.3-.2.2-.2.2-.3.3a.44.44,0,0,1-.3.1.1.1,0,0,0-.1.1.76.76,0,0,1-.5.2,6.21,6.21,0,0,1-1,.3,2,2,0,0,1-1.3-.1c-1.3-.4-2-2-2.4-3.2a28.29,28.29,0,0,1-.4-15,24.73,24.73,0,0,1,1.1-3.6l.6-1.2a2.09,2.09,0,0,0,.4-.6c2.1-1.9,5.5-2,8.2-1.3a8.67,8.67,0,0,1,5.5,4.2.1.1,0,0,1,.1.1,6.6,6.6,0,0,0,.1,1.4A65.61,65.61,0,0,1,248.12,95Zm40.6,62.8h0a.31.31,0,0,0-.1.2C288.32,158.18,288.62,158,288.72,157.78Zm2.6-2.2c.3-.3.2,0,0,0Zm.5-23.2c-.2,5.4-.6,10.9-1.2,16.3-.2,1.8-.5,3.5-.8,5.3a16.53,16.53,0,0,1-1.4-2.6c-2.1-5.2-2-11.3-1.5-16.8a77.24,77.24,0,0,1,5.5-22C292.22,119.18,292.12,125.78,291.82,132.38Zm56.6-106.1a87.08,87.08,0,0,1-1,22.8,136.19,136.19,0,0,1-3.3,15.4c0-9.4.1-18.9.5-28.3.3-5.8.6-11.6,1.4-17.4.1-.4.1-.8.2-1.3.2.4.4.9.6,1.3A24.55,24.55,0,0,1,348.42,26.28Zm-3.8-10.7c-.2.1-.2,0,0,0ZM378.92,81a23.78,23.78,0,0,1,1.5-4.5h.5a3.84,3.84,0,0,1,2.5.9,7.25,7.25,0,0,1,2.5,6.5c-.3,4.3-3.3,8-6.7,11a28.91,28.91,0,0,1-.8-5.8A31,31,0,0,1,378.92,81Zm63.3,20.3Zm2.3-3.3c-.6,1-.8,1.4-1.5,2.4,0,.1-.2.3-.3.4a1.38,1.38,0,0,0-.3.4.35.35,0,0,0-.1.2l-.4.4h0c.6-.6.1-.1-.1,0s-.2.1-.3.2l-.6.3c-.3.1-.5.2-.8.3a5.67,5.67,0,0,1-2.6,0,4.54,4.54,0,0,1-2.6-2.8c-2.1-5.1-1.6-11.8.2-16.9a14.72,14.72,0,0,1,1-2.2c.1-.2.3-.4.4-.6s.5-.7.2-.3l.2-.2a1.38,1.38,0,0,1,.4-.3,9.91,9.91,0,0,1,1.7-1.1,14.26,14.26,0,0,1,2.7-.9,8.34,8.34,0,0,1,8.5,4.4C448.92,87.18,447.32,92.88,444.52,98Z" fill="#222"/>
  </g>
</svg>
